# xmcd
#
# Track frame offsets:
#	182
#	13245
#	25887
#	34557
#	44772
#	57170
#	68555
#	77095
#	84977
#	94170
#	104120
#	112445
#	124620
#	132720
#	145545
#	155357
#	164667
#	176520
#
# Disc length: 2486 seconds
#
# Revision: 1
# Processed by: cddbd v1.5.1PL2 Copyright (c) Steve Scherf et al.
# Submitted via: EasyCDDAExtractor 6.0.0.1
#
DISCID=fc09b412
DTITLE=Jerry Lee Lewis - Country Music CM012
DYEAR=1999
DGENRE=Country
TTITLE0=Whole Lot Of Shakin' Going On # 1 ('57)
TTITLE1=It'll Be Me
TTITLE2=Great Balls Of Fire # 1 ('57)
TTITLE3=Down The Line
TTITLE4=Breathless # 4 ('58)
TTITLE5=High School Confidential # 9 ('58)
TTITLE6=Lovin' Up A Storm
TTITLE7=Big Blon Baby
TTITLE8=Lewis Boogie
TTITLE9=Put Me Down
TTITLE10=Ubangi Stomp
TTITLE11=Break Up
TTITLE12=Long Tall Sally
TTITLE13=Roll Over Beethoven
TTITLE14=Maybelline
TTITLE15=Flip, Flop, Fly
TTITLE16=I Believe In You
TTITLE17=Johnny B. Goode
EXTD=
EXTT0=
EXTT1=
EXTT2=
EXTT3=
EXTT4=
EXTT5=
EXTT6=
EXTT7=
EXTT8=
EXTT9=
EXTT10=
EXTT11=
EXTT12=
EXTT13=
EXTT14=
EXTT15=
EXTT16=
EXTT17=
PLAYORDER=
